<svg width="16" height="16" viewBox="0 0 16 16" fill="none" xmlns="http://www.w3.org/2000/svg"><path fill-rule="evenodd" clip-rule="evenodd" d="M2.49998 2C2.22384 2 1.99998 2.22386 1.99998 2.5V13.5C1.99998 13.7761 2.22384 14 2.49998 14H13.5C13.7761 14 14 13.7761 14 13.5V6L15 6L15 13.5C15 14.3284 14.3284 15 13.5 15L2.49999 15C1.67156 15 0.999985 14.3284 0.999985 13.5L0.999985 2.5C0.999985 1.67157 1.67156 1 2.49998 1L5.99999 1V2L2.49998 2ZM11.7072 8.44212L8.3536 11.7957C8.15834 11.9909 7.84176 11.9909 7.6465 11.7957L4.29294 8.44212L5.00004 7.73501L7.49998 10.2349V5.44211C7.49998 2.94649 9.52341 1 12 1L15 1V2L12 2C10.0566 2 8.49998 3.51772 8.49998 5.44211V10.2351L11 7.73501L11.7072 8.44212Z" fill="#6B6B6B"></path></svg>